<?xml version="1.0" encoding="utf-8"?>
<!-- Generator: Adobe Illustrator 25.4.1, SVG Export Plug-In . SVG Version: 6.00 Build 0)  -->
<svg version="1.1" id="圖層_1" xmlns="http://www.w3.org/2000/svg" xmlns:xlink="http://www.w3.org/1999/xlink" x="0px" y="0px"
	 viewBox="0 0 128 128" style="enable-background:new 0 0 128 128;" xml:space="preserve">
<style type="text/css">
	.st0{fill:#FEC62B;}
</style>
<path class="st0" d="M22.7,53.3h18.7L51.5,85L22.7,53.3z M76.5,85l10.1-31.7h18.7L76.5,85z M73,42.7H55l9-14.1L73,42.7L73,42.7z
	 M93.3,24l13.6,18.7H85.6L73.7,24C73.7,24,93.3,24,93.3,24z M34.7,24h19.6L42.4,42.7H21.1C21.1,42.7,34.7,24,34.7,24z M52.6,53.3
	h22.7L64,89.1L52.6,53.3L52.6,53.3z M68.1,110.1l53.2-58.5c0.3-0.4,0.6-0.8,0.8-1.3c0.1-0.2,0.2-0.5,0.3-0.7
	c0.1-0.2,0.1-0.4,0.2-0.7c0-0.2,0-0.5,0.1-0.7c0-0.3,0-0.5,0-0.8c0-0.2-0.1-0.4-0.1-0.6c-0.1-0.3-0.1-0.5-0.2-0.8
	c-0.1-0.3-0.2-0.5-0.4-0.7c-0.1-0.1-0.1-0.3-0.2-0.5l-20.9-28.7c-0.7-1.4-2-2.4-3.8-2.7c-0.2,0-0.3,0-0.5,0c-0.1,0-0.3,0-0.4,0H32
	c-0.2,0-0.3,0-0.4,0c-0.2,0-0.3,0-0.5,0c-1.9,0.3-3.1,1.3-3.8,2.7L6.3,44.9c-0.1,0.1-0.2,0.3-0.2,0.5c-0.1,0.2-0.3,0.5-0.4,0.7
	c-0.1,0.3-0.2,0.5-0.2,0.8c0,0.2-0.1,0.4-0.1,0.6c0,0.3,0,0.5,0,0.8c0,0.2,0,0.5,0.1,0.7c0,0.2,0.1,0.4,0.2,0.7
	c0.1,0.2,0.1,0.5,0.3,0.7c0.2,0.5,0.5,0.9,0.8,1.3l53.2,58.5c0.2,0.3,0.5,0.5,0.8,0.8c0.9,0.7,1.9,1.1,3,1.2c0.1,0,0.2,0,0.3,0
	c0.1,0,0.2,0,0.3,0c1-0.1,2.1-0.4,3-1.2C67.6,110.6,67.9,110.3,68.1,110.1L68.1,110.1z"/>
</svg>
