<svg id="圖層_1" data-name="圖層 1" xmlns="http://www.w3.org/2000/svg" viewBox="0 0 187.99 188"><defs><style>.cls-1{fill:#fff;}</style></defs><path class="cls-1" d="M173.36,144.15A71.13,71.13,0,0,0,153.06,130a47,47,0,1,0-59.17,0,70.81,70.81,0,0,0-20.3,14.19A70.06,70.06,0,0,0,53,192.07,1.88,1.88,0,0,0,54.88,194H68a1.87,1.87,0,0,0,1.88-1.81,53.61,53.61,0,0,1,107.16,0A1.87,1.87,0,0,0,179,194h13.16a1.87,1.87,0,0,0,1.87-1.93A69.88,69.88,0,0,0,173.36,144.15ZM123.5,123.5a30.08,30.08,0,0,1-.31-60.16,30.26,30.26,0,0,1,21.39,8.6A30.08,30.08,0,0,1,123.5,123.5Z" transform="translate(-6 -6)"/><path class="cls-1" d="M64.63,99.62a60.55,60.55,0,0,1-.32-6.2,59.65,59.65,0,0,1,1-10.93,1.9,1.9,0,0,0-1.06-2.06A30.09,30.09,0,1,1,97.13,31a30.68,30.68,0,0,1,4.8,5.74,1.87,1.87,0,0,0,2.18.75,58.57,58.57,0,0,1,13-2.91,1.89,1.89,0,0,0,1.48-2.73A47,47,0,1,0,47,89.52,70.63,70.63,0,0,0,6,151.65a1.87,1.87,0,0,0,1.87,1.93H21.07A1.88,1.88,0,0,0,23,151.77a53.63,53.63,0,0,1,40.27-50.1,1.88,1.88,0,0,0,1.41-2Z" transform="translate(-6 -6)"/></svg>