<?xml version="1.0" encoding="utf-8"?>
<!-- Generator: Adobe Illustrator 25.4.1, SVG Export Plug-In . SVG Version: 6.00 Build 0)  -->
<svg version="1.1" id="圖層_1" xmlns="http://www.w3.org/2000/svg" xmlns:xlink="http://www.w3.org/1999/xlink" x="0px" y="0px"
	 viewBox="0 0 200 200" style="enable-background:new 0 0 200 200;" xml:space="preserve">
<style type="text/css">
	.st0{fill:#EFEFEF;}
</style>
<g>
	<path class="st0" d="M95.7,0.2c3,0,6,0,9,0c0.3,0,0.5,0.1,0.8,0.1c3.2,0.3,6.5,0.5,9.7,0.9c11.1,1.5,21.7,4.8,31.6,10
		c13,6.8,23.7,16.2,32.8,27.7c10,12.6,16.2,26.8,19,42.6c0.7,3.8,0.7,7.7,1.1,11.6c0.1,1.7,0.2,3.5,0.4,5.2c0,0.6,0,1.3,0,1.9
		c-0.1,0.3-0.3,0.6-0.3,0.9c0.2,6.9-0.2,13.7-1.6,20.5c-5.9,27.1-21.1,47.7-43.9,62.9c-12.3,8.2-26,12.8-40.7,14.5
		c-1.8,0.2-3.6,0.6-5.4,0.9c-4.6,0-9.3,0-13.9,0c-0.3-0.1-0.6-0.1-0.9-0.1c-6.3-0.5-12.6-1.3-18.7-2.9
		c-27.1-7.2-47.3-23.5-61.5-47.4C5.6,136.8,1.7,123,0.8,108.4c-0.1-1.3-0.2-2.6-0.3-3.9c0-3.2,0-6.5,0-9.7c0-0.3,0.1-0.5,0.1-0.8
		c0.2-2.8,0.4-5.6,0.7-8.3c1.1-8.9,3.4-17.5,7-25.8c6.5-14.8,16.2-27.2,28.6-37.4c16-13.2,34.4-20.4,55-22
		C93.2,0.4,94.4,0.3,95.7,0.2z M99.7,191c5.9-0.1,11.2-0.6,16.3-1.5c16.6-3.1,31.3-10.2,44.1-21.1c10.8-9.2,18.5-20.7,23.9-33.7
		c6.4-15.5,8.9-31.5,6.1-48.2c-2.7-16.6-9.4-31.4-19.9-44.5c-9.5-11.9-21.8-20.2-35.8-26c-9.6-4-19.5-6.3-29.9-6.9
		C95.9,8.7,87.4,9.6,79,11.8c-29.2,7.7-50.3,25-62.4,53c-3.5,8.1-5.7,16.6-6.8,25.3c-0.6,4.8-1.2,9.6-0.6,14.4c0.6,4.6,1,9.3,2,13.8
		c7.3,31.3,25.4,53.6,55.3,65.9C77.4,188.7,88.7,190.8,99.7,191z"/>
	<path class="st0" d="M118.7,50.7c0.4-0.7,0.7-1.4,1.1-2.1c0.2-0.4,1.6-0.4,2.3-0.2c0.6,0.2,1.3,0.3,1.9,0.5
		c1.6,0.4,3.3,0.8,4.9,1.2c1.1,0.3,2.2,0.5,3.3,0.8c0.7,0.2,1.3,0.4,1.9,0.7c1.3,0.5,2.7,1.1,4,1.7c1.6,0.7,3.2,1.4,4.7,2.1
		c1.2,0.6,2.4,1.3,3.5,2c1.5,0.9,3,1.9,4.4,2.9c0.8,0.6,1.5,1.4,2.1,2.3c1.1,1.8,2,3.7,3,5.5c0.6,1.1,1.2,2.1,1.7,3.2
		c0.5,1.2,0.9,2.4,1.4,3.6c0.6,1.3,1.2,2.7,1.7,4c0.3,0.7,0.5,1.3,0.7,2c0.5,1.5,0.9,3,1.4,4.5c0.3,1,0.7,1.9,1.1,2.9
		c0.3,1,0.5,2,0.8,3.1c0.3,1.1,0.7,2.3,1,3.4c0,0.1,0.2,0.3,0.2,0.4c0.3,1.3,0.5,2.6,0.8,3.8c0.3,1.4,0.7,2.8,1.1,4.2
		c0,0.2,0.1,0.3,0.1,0.5c0.2,0.9,0.4,1.9,0.6,2.8c0.3,1.7,0.5,3.4,0.7,5.1c0.1,0.8,0.4,1.5,0.5,2.3c0.1,0.2,0.1,0.5,0.1,0.7
		c0.2,1.3,0.4,2.6,0.5,4c0.1,1,0.1,2.1,0.2,3.2c0.1,0.7,0.3,1.4,0.4,2.1c0.1,0.3,0.1,0.7,0.1,1c0.1,2.1-0.1,4.1,0.2,6.2
		c0.2,1.4-0.3,2.2-1.2,3.1c-2.2,2-4.3,4.1-6.6,5.9c-2,1.6-4.3,2.8-6.6,4c-1.5,0.9-3.1,1.7-4.6,2.4c-1.3,0.6-2.6,1-4,1.5
		c-1.7,0.6-3.4,1.3-5.1,1.8c-1.2,0.4-2.5,0.5-3.8,0.8c-1.9,0.4-3.9,0.8-5.8,1c-1.2,0.2-2.4,0.2-3.6,0.2c-0.2,0-0.5-0.4-0.7-0.6
		c-1.4-1.8-2.7-3.6-4.1-5.4c-0.1-0.1-0.1-0.2-0.2-0.5c0.6-0.2,1.2-0.5,1.8-0.7c0.6-0.2,1.2-0.4,1.8-0.7c2.5-1.3,5.1-2.4,7.6-3.8
		c3.4-1.9,6.7-4.1,9.5-6.8c2.1-2,4.3-4,6.4-6c0.2-0.2,0.3-0.7,0.4-1c-0.1-0.1-0.2-0.2-0.3-0.2c-0.5,0.3-1,0.7-1.5,1
		c-1.9,1.2-3.7,2.6-5.6,3.7c-1.8,1.1-3.6,2.1-5.5,3c-1.6,0.8-3.4,1.4-5.1,2.1c-1.4,0.6-2.8,1.2-4.2,1.7c-1,0.3-2,0.6-3,0.9
		c-1.2,0.3-2.4,0.7-3.5,1c-0.1,0-0.1,0.1-0.2,0.1c-1.3,0.2-2.7,0.5-4,0.7c-2.2,0.4-4.5,0.8-6.7,1.1c-0.2,0-0.5,0.1-0.7,0.1
		c-2.9,0.2-5.9,0.4-8.8,0.5c-2.6,0.1-5.2-0.1-7.8-0.2c-1.9-0.1-3.8-0.2-5.7-0.3c-1.5-0.1-3-0.3-4.4-0.6c-2-0.3-4-0.8-6-1.1
		c-0.1,0-0.2,0-0.3-0.1c-1.3-0.3-2.7-0.4-4-0.8c-1.7-0.5-3.3-1.1-5-1.7c-0.9-0.3-1.8-0.5-2.6-0.8c-0.6-0.2-1.3-0.4-1.8-0.7
		c-2.4-1.2-4.8-2.3-7.2-3.6c-2.6-1.4-5.1-3.1-7.6-4.7c-0.7-0.5-1.4-1-2-1.5c-0.1,0.1-0.2,0.1-0.3,0.2c0.1,0.3,0,0.8,0.2,1
		c2.1,2,4.2,4.1,6.5,6c2.2,1.9,4.6,3.6,6.9,5.3c1.7,1.1,3.5,2.1,5.3,3c1.6,0.8,3.2,1.6,4.8,2.4c1.1,0.5,2.2,0.9,3.3,1.3
		c0.1,0,0.2,0.1,0.3,0.3c-0.2,0.3-0.4,0.6-0.6,0.8c-1.3,1.7-2.5,3.4-3.8,5c-0.2,0.2-0.6,0.5-0.8,0.5c-2.4-0.2-4.8-0.4-7.2-0.7
		c-1.9-0.3-3.7-0.8-5.5-1.2c-1.1-0.3-2.1-0.7-3.1-1.1c-1.5-0.5-3-0.9-4.4-1.4c-0.6-0.2-1.2-0.5-1.8-0.8c-2-1-4.1-2-6-3.1
		c-1.4-0.8-2.8-1.8-4.1-2.7c-3.2-2.1-5.9-4.7-8.5-7.5c-0.3-0.3-0.3-1-0.4-1.5c0-0.2,0-0.3,0-0.5c0.1-3.6,0.2-7.1,0.7-10.7
		c0.3-2.1,0.4-4.2,0.7-6.3c0.3-1.7,0.7-3.4,1.1-5.2c0-0.1,0.1-0.2,0.1-0.3c0.2-1.7,0.4-3.4,0.8-5.1c0.3-1.4,0.7-2.7,1-4
		c0.3-1.3,0.5-2.7,0.9-4c0.3-1.1,0.6-2.2,0.9-3.2c0-0.2,0.2-0.3,0.2-0.5c0.3-1.1,0.5-2.2,0.8-3.3c0.3-0.9,0.7-1.8,1-2.8
		c0.3-0.9,0.5-1.7,0.8-2.6c0.4-1,0.8-2,1.1-3c0.5-1.4,1-2.9,1.5-4.3c0.2-0.5,0.4-0.9,0.6-1.4c0.8-1.7,1.6-3.4,2.4-5.1
		c0.5-1,0.9-2.1,1.4-3c1.1-2,1.9-4.3,3.7-5.8c1-0.9,2.2-1.5,3.3-2.3c1.3-0.8,2.5-1.6,3.8-2.4c1-0.6,2.1-1,3.1-1.5
		c1.1-0.5,2.2-1.1,3.3-1.6c0.7-0.3,1.5-0.6,2.2-0.8c1-0.4,1.9-0.8,2.9-1.1c0.9-0.3,1.9-0.5,2.8-0.8c1.4-0.4,2.7-0.8,4.1-1.1
		c0.3-0.1,0.6-0.1,0.9-0.1c1-0.2,1.9-0.4,2.9-0.5c0.7-0.1,1.3-0.1,2-0.1c0.1,0,0.3,0.1,0.4,0.2c0.4,0.8,0.8,1.5,1.2,2.3
		c-1.2,0.3-2.3,0.5-3.4,0.8c-1,0.3-1.9,0.7-2.9,1c-0.7,0.3-1.5,0.5-2.2,0.8c-1.9,0.7-3.8,1.3-5.6,2.1c-1.8,0.8-3.5,1.9-5.1,2.9
		c-2,1.3-4,2.6-5.9,4c-1.5,1.1-2.9,2.4-4.4,3.6c-0.2,0.2-0.5,0.2-0.7,0.4c-0.1,0.2-0.2,0.5-0.1,0.7c0,0.1,0.4,0.2,0.6,0.2
		c0.6-0.2,1.1-0.5,1.7-0.8c1.2-0.6,2.4-1.2,3.6-1.8c1-0.5,2.1-1,3.1-1.5c1.3-0.6,2.7-1.2,4-1.7c1.4-0.6,2.8-1.2,4.2-1.7
		c0.8-0.3,1.7-0.5,2.6-0.8c1.1-0.4,2.1-0.7,3.2-1.1c0.1,0,0.2-0.1,0.2-0.1c1.2-0.2,2.3-0.5,3.5-0.7c1.6-0.4,3.2-0.8,4.8-1.1
		c0.7-0.1,1.4-0.1,2.1-0.2c2-0.3,4-0.5,6-0.7c4.2-0.4,8.4-0.6,12.6-0.5c2.1,0.1,4.3,0.4,6.4,0.6c2.3,0.2,4.6,0.4,6.9,0.7
		c2.1,0.3,4.1,0.8,6.1,1.3c1.5,0.4,3.1,0.8,4.6,1.3c1.5,0.5,3,1.1,4.6,1.7c1.4,0.5,2.8,0.9,4.2,1.5c1.1,0.4,2.1,1,3.1,1.4
		c0.8,0.4,1.7,0.7,2.5,1.1c1,0.5,2.1,1.1,3.1,1.6c1,0.5,1.9,1,2.9,1.5c0.2,0.1,0.5-0.1,0.8-0.1c-0.1-0.3-0.1-0.6-0.2-0.8
		c-1.2-1-2.5-2-3.7-3c-1.5-1.1-2.9-2.3-4.5-3.3c-2.3-1.5-4.8-2.8-7.2-4.2c-1.4-0.7-2.9-1.3-4.4-1.9c-1.4-0.6-2.8-1.2-4.2-1.7
		c-1-0.4-2.1-0.5-3.2-0.8C120.7,51.3,119.7,51,118.7,50.7z M121.8,119.7c1.9,0.4,3.9-0.5,5.7-1.8c2.1-1.6,4-3.5,4.7-6.2
		c0.4-1.5,0.9-3,1-4.5c0.2-2.1-0.4-4.1-1.1-6.1c-0.6-1.5-1.4-2.9-2.4-4.1c-1.5-1.7-3.4-2.8-5.6-3.5c-2.4-0.8-4.5-0.3-6.7,0.4
		c-1,0.3-1.8,1.1-2.6,1.7c-2.6,1.9-4.2,4.5-4.7,7.5c-0.4,2.6-0.8,5.3,0.4,7.9c0.5,1.1,0.8,2.2,1.4,3.2
		C114.1,117.7,117.1,119.9,121.8,119.7z M79.3,119.7c2.7,0.4,4.9-0.9,7-2.6c1.6-1.3,2.6-3.1,3.5-4.9c0.4-0.7,0.7-1.6,0.7-2.4
		c0.1-2.8,0.6-5.7-0.6-8.4c-0.5-1-0.8-2.1-1.5-2.9c-0.9-1.1-1.9-2.2-3.1-3.1c-1.6-1.3-3.5-2-5.5-2.2c-1.2-0.1-2.5,0.1-3.7,0.5
		c-1.9,0.7-3.6,1.6-5,3.1c-1.3,1.3-2.1,2.8-2.8,4.5c-0.6,1.5-0.9,3-1.1,4.5c-0.2,2.1,0.3,4.2,1.1,6.1c0.5,1.2,1.1,2.3,1.8,3.3
		c1.1,1.4,2.3,2.7,4,3.5c1,0.4,2,1.1,3.1,1.1C77.9,119.7,78.5,119.7,79.3,119.7z"/>
</g>
</svg>
