<?xml version="1.0" encoding="utf-8"?>
<!-- Generator: Adobe Illustrator 25.4.1, SVG Export Plug-In . SVG Version: 6.00 Build 0)  -->
<svg version="1.1" id="圖層_1" xmlns="http://www.w3.org/2000/svg" xmlns:xlink="http://www.w3.org/1999/xlink" x="0px" y="0px"
	 viewBox="0 0 200 200" style="enable-background:new 0 0 200 200;" xml:space="preserve">
<style type="text/css">
	.st0{fill:#FFFFFF;}
</style>
<path class="st0" d="M163.5,5C180.8,5,195,21.3,195,41.2v99.5c0,19.9-14.3,36.2-31.5,36.2h-38.9L112.1,190c-3.5,3.2-7.8,5-12.1,5
	c-4.3,0-8.6-1.8-12.1-5l-12.6-13.1H36.5C19.2,176.9,5,160.6,5,140.7V41.2C5,21.3,19.2,5,36.5,5C36.5,5,163.5,5,163.5,5z M166,19.2
	H34c-8.1,0-14.8,8.6-14.8,19v104.5c0,10.5,6.7,19,14.8,19h47.6l18.4,19l18.4-19H166c8.1,0,14.8-8.6,14.8-19V38.2
	C180.8,27.8,174,19.2,166,19.2L166,19.2z M97.6,123.8c2,0,3.8,0.6,5.1,2c1.4,1.3,2.1,3.2,2,5.1c0,1.9-0.7,3.8-2.1,5.2
	c-1.4,1.3-3.2,2-5,2c-1.9,0-3.7-0.7-5-2.1c-1.3-1.3-2.1-3.2-2-5.1c-0.1-1.9,0.7-3.8,2-5.1C93.9,124.4,95.7,123.7,97.6,123.8
	L97.6,123.8z M101.3,52.5c8.1,0,14.6,2.1,19.6,6.6c5,4.4,7.6,10.4,7.6,17.9c0,6.1-1.6,11.3-4.8,15.3c-1.1,1.4-4.7,4.6-10.6,9.8
	c-2.4,2-4.2,4.3-5.3,6.5c-1.4,2.5-2.1,5.4-2,8.3v2.1H92.4v-2.1c0-4.6,0.8-8.6,2.5-11.9c1.6-3.5,6.4-8.6,14.2-15.5l2.1-2.4
	c2.3-2.9,3.5-5.9,3.5-9.1c0-4.4-1.3-7.8-3.7-10.3c-2.5-2.5-6.2-3.8-10.7-3.8c-5.7,0-9.8,1.8-12.3,5.4c-2.3,3-3.4,7.3-3.4,12.8H71.5
	c0-9.1,2.6-16.3,7.9-21.6C84.7,55.1,92,52.5,101.3,52.5L101.3,52.5L101.3,52.5z"/>
</svg>
