<?xml version="1.0" encoding="utf-8"?>
<!-- Generator: Adobe Illustrator 25.0.1, SVG Export Plug-In . SVG Version: 6.00 Build 0)  -->
<svg version="1.1" id="圖層_1" xmlns="http://www.w3.org/2000/svg" xmlns:xlink="http://www.w3.org/1999/xlink" x="0px" y="0px"
	 viewBox="0 0 511 511" style="enable-background:new 0 0 511 511;" xml:space="preserve">
<style type="text/css">
	.st0{fill:#FFFFFF;}
</style>
<path class="st0" d="M508.2,130.3c-1.3-30.2-6.4-46.7-10.7-57.6c-5-13.5-12.9-25.6-23.2-35.7c-9.9-10.3-22.2-18.2-35.7-23.2
	c-10.9-4.3-27.3-9.3-57.6-10.7c-32.6-1.5-42.5-1.8-125.4-1.8c-82.8,0-92.7,0.4-125.4,1.8c-30.2,1.3-46.7,6.4-57.6,10.7
	C59.2,18.9,47,26.8,37,37.1C26.5,47,18.7,59.3,13.7,72.7C9.4,83.6,4.3,100,3,130.3C1.6,163,1.2,172.9,1.2,255.7S1.6,348.4,3,381.2
	c1.3,30.2,6.4,46.7,10.7,57.6c5,13.5,12.9,25.6,23.2,35.7c9.9,10.3,22.2,18.2,35.6,23.2c10.9,4.3,27.3,9.3,57.6,10.7
	c32.6,1.5,42.6,1.8,125.4,1.8s92.7-0.4,125.4-1.8c30.2-1.3,46.7-6.4,57.6-10.7c27-10.4,48.5-31.9,59-58.9
	c4.2-10.9,9.3-27.3,10.7-57.6c1.5-32.7,1.8-42.5,1.8-125.3S509.6,163.1,508.2,130.3z M255.4,415c-88.1,0-159.5-71.4-159.5-159.5
	C95.9,167.5,167.4,96,255.4,96s159.5,71.4,159.5,159.5C414.9,343.6,343.5,415,255.4,415z M421.2,126.9c-20.6,0-37.2-16.7-37.2-37.2
	c0-20.6,16.7-37.2,37.2-37.2c20.6,0,37.2,16.7,37.2,37.2C458.5,110.3,441.8,126.9,421.2,126.9z"/>
<path class="st0" d="M358.9,255.5c0,57.1-46.3,103.5-103.5,103.5C198.3,359,152,312.6,152,255.5c0-57.1,46.3-103.5,103.5-103.5
	C312.5,152,358.9,198.4,358.9,255.5z"/>
</svg>
