<?xml version="1.0" encoding="utf-8"?>
<!-- Generator: Adobe Illustrator 25.4.1, SVG Export Plug-In . SVG Version: 6.00 Build 0)  -->
<svg version="1.1" id="圖層_1" xmlns="http://www.w3.org/2000/svg" xmlns:xlink="http://www.w3.org/1999/xlink" x="0px" y="0px"
	 viewBox="0 0 200 200" style="enable-background:new 0 0 200 200;" xml:space="preserve">
<style type="text/css">
	.st0{fill:#EFEFEF;}
</style>
<path class="st0" d="M92.9,0c4.1,0,8.1,0,12.2,0c1.8,0.2,3.5,0.3,5.3,0.5c7.2,0.8,14.2,2.1,21.1,4.4c19.5,6.3,35.1,18,47.8,33.8
	c11.9,14.9,18.5,32,20.2,51c0.2,1.8,0.3,3.6,0.5,5.3c0,3.1,0,6.1,0,9.2c-0.1,0.5-0.1,1-0.2,1.6c-0.2,2.6-0.3,5.3-0.6,7.9
	c-1.4,11.5-4.8,22.4-10.1,32.7c-5.3,10.4-12.7,19.3-21.1,27.3c-15.9,15.1-34.8,23.5-56.4,25.9c-1.8,0.2-3.6,0.3-5.4,0.5
	c-4,0-8,0-12,0c-0.1,0-0.3-0.1-0.4-0.1c-5.8-0.2-11.4-1.4-17.1-2.5c-7.4-1.3-14.2-4.3-21-7.4c-11.4-5.3-21-13.2-29.6-22.3
	c-16.5-17.5-25.3-38.4-26-62.5c0-0.3-0.1-0.6-0.1-0.9c0-2.4,0-4.7,0-7.1c0.1-0.5,0.1-0.9,0.1-1.4c0.2-3.6,0.2-7.2,0.7-10.7
	C2,76,4.6,67.3,8.2,58.9C13.6,46.6,21.5,36.2,31.1,27c15.8-15,34.5-23.8,56.2-26.4C89.1,0.5,91,0.2,92.9,0z M100.3,191.4
	c3.2-0.3,7.1-0.5,11-1c10-1.3,19.5-4.4,28.6-8.8c12.6-6.1,23.5-14.4,31.9-25.7c9.4-12.6,15.6-26.6,18-42.1c0.6-4,1.2-8,1.3-12
	c0.1-8.9-1.1-17.7-3.7-26.3c-7.6-25-22.4-44.2-45.9-56.2c-12.2-6.2-25.1-9.7-38.8-10.3c-8.6-0.4-17,0.8-25.3,3
	C48.5,20,27.8,37.4,16,65.1c-4.5,10.5-7,21.4-7.3,32.8c-0.3,10.8,1.6,21.2,5.1,31.3c4.4,12.7,10.9,24.3,20.3,33.9
	C52,181.5,74,190.4,100.3,191.4z"/>
<path class="st0" d="M162,100.7c0,8.6,0,17.2,0,25.8c0,6.8-1.6,13.2-5.1,19.1c-5.1,8.5-12.7,13.5-22.4,15.5c-3.8,0.8-7.7,1-11.6,1
	c-7.5,0-15.1,0-22.6,0c-8.7,0-17.3,0.1-26,0c-6.5,0-12.7-1.4-18.4-4.5c-8.9-4.7-14-12.3-16.3-21.8c-1.1-4.6-1.5-9.4-1.6-14.1
	c-0.2-13.3-0.2-26.5-0.2-39.8c0-5.5,0.3-11.1,1.5-16.5c1.9-8,5.6-14.8,12.4-19.8c5-3.7,10.7-5.9,16.9-6.6c11.6-1.3,23.3-1.3,35-1.2
	c5.5,0.1,11,0.1,16.4,0.3c6,0.2,12,0.5,17.7,2.2c12.3,3.7,19.8,12,22.9,24.4c1.1,4.3,1.4,8.6,1.4,13c0,7.6,0,15.2,0,22.9
	C162.1,100.7,162.1,100.7,162,100.7z M151.1,100.4C151.1,100.4,151.1,100.4,151.1,100.4c0-5.8,0-11.5,0-17.3c0-5,0-10.1-1.1-15
	c-1.8-8.7-6.9-14.4-15.5-16.9c-3.8-1.1-7.8-1.3-11.7-1.4c-15.1-0.5-30.1-0.5-45.2,0c-3.7,0.1-7.3,0.3-10.9,1.2
	c-8,2-13.4,6.8-15.8,14.8c-1.2,3.9-1.6,8-1.6,12c-0.1,11.9-0.2,23.8-0.2,35.6c0,6.1,0.1,12.2,1.1,18.3c1.6,10.1,8.7,17.3,18.9,18.5
	c5,0.6,10.2,0.8,15.2,0.9c11.9,0.1,23.7,0,35.6,0c4.4,0,8.8-0.2,13.2-1.2c8.5-1.9,14.1-7,16.5-15.5c1.2-4.3,1.4-8.8,1.5-13.2
	C151.1,114.3,151.1,107.3,151.1,100.4z"/>
<path class="st0" d="M99.9,131.9c-16.2,0.5-31.9-13.6-32-31.6c-0.1-17.5,14.2-32,31.6-32.2c18.2-0.2,32.5,14.6,32.5,32
	C132,117.5,117.4,132.4,99.9,131.9z M79.3,100c0,11.5,9,20.5,20.3,20.7c11.2,0.2,21.2-9,21.1-20.7c-0.1-11.4-9.2-20.6-20.7-20.6
	C88.5,79.4,79.3,88.5,79.3,100z"/>
<path class="st0" d="M100,92.4c4.1,0,7.6,3.4,7.6,7.5c0,4.1-3.5,7.6-7.5,7.6c-4.1,0-7.6-3.5-7.6-7.6C92.5,95.8,95.8,92.4,100,92.4z"
	/>
</svg>
