<?xml version="1.0" encoding="utf-8"?>
<!-- Generator: Adobe Illustrator 25.4.1, SVG Export Plug-In . SVG Version: 6.00 Build 0)  -->
<svg version="1.1" id="圖層_1" xmlns="http://www.w3.org/2000/svg" xmlns:xlink="http://www.w3.org/1999/xlink" x="0px" y="0px"
	 viewBox="0 0 200 200" style="enable-background:new 0 0 200 200;" xml:space="preserve">
<style type="text/css">
	.st0{fill-rule:evenodd;clip-rule:evenodd;fill:#2774A8;}
	.st1{fill-rule:evenodd;clip-rule:evenodd;fill:#BA312F;}
</style>
<path class="st0" d="M603.4,811.4l5.8-5.8c0.8-0.8,2.1-0.8,2.9,0l7.2,7.2l23.2-23.2c0.8-0.8,2.1-0.8,2.9,0l5.8,5.8
	c0.8,0.8,0.8,2.1,0,2.9L626.6,823l0,0l-5.8,5.8c-0.1,0.1-0.2,0.2-0.4,0.3l0,0l-0.1,0.1l0,0l0,0l0,0l-0.1,0.1l0,0l-0.1,0l0,0l0,0l0,0
	l0,0v0l0,0l0,0l0,0l-0.1,0l0,0l0,0c-0.1,0-0.1,0-0.2,0l0,0l0,0l0,0h0h0h0h0l0,0h0l0,0h0l0,0h0l0,0l0,0l0,0l0,0l0,0l0,0h0l0,0l0,0
	l0,0l0,0l0,0l0,0l0,0h0l0,0l0,0l0,0h0l0,0l0,0l0,0h0l0,0h0l0,0l0,0l0,0l0,0l0,0l0,0l0,0h0l0,0l0,0l0,0h0l0,0h0l0,0h0l0,0h0l0,0l0,0
	l0,0h0l0,0h0l0,0l0,0l0,0l0,0l0,0l0,0l-5.8-5.8l0,0l-8.6-8.6C602.6,813.5,602.6,812.2,603.4,811.4L603.4,811.4z"/>
<path class="st1" d="M36.7,68.3v37.1v11.2V195h126.7v-87.2v-2.4V90.5v-3.9V68.3C163.3,33.3,135,5,100,5C65,5,36.7,33.3,36.7,68.3
	L36.7,68.3z M141.1,86.3H58.9v-18c0-22.7,18.4-41.1,41.1-41.1s41.1,18.4,41.1,41.1v18.3v3.9V86.3L141.1,86.3z"/>
</svg>
