<?xml version="1.0" encoding="utf-8"?>
<!-- Generator: Adobe Illustrator 25.4.1, SVG Export Plug-In . SVG Version: 6.00 Build 0)  -->
<svg version="1.1" id="圖層_1" xmlns="http://www.w3.org/2000/svg" xmlns:xlink="http://www.w3.org/1999/xlink" x="0px" y="0px"
	 viewBox="0 0 200 200" style="enable-background:new 0 0 200 200;" xml:space="preserve">
<style type="text/css">
	.st0{fill:#FFFFFF;}
</style>
<path class="st0" d="M190.5,8.8c-0.9-0.8-2-1.4-3.3-1.7c0,0-48-11.9-83.8,23.9c-7.7,7.7-18.3,22.6-28.7,37.8
	c-6.1-3.3-12.8-5.4-19.7-5.9c-12.4-1.2-29.2,2.1-44.4,17.3l-5.5,5.5l109.2,109.2l5.5-5.5c15.2-15.2,18.4-32.1,17.3-44.4
	c-0.6-6.9-2.6-13.6-5.9-19.7c15.2-10.4,30.1-21.1,37.8-28.7c35.8-35.8,23.9-83.8,23.9-83.8C192.5,11.2,191.7,9.8,190.5,8.8z
	 M178.2,21.8c1.4,7.4,6.3,37.4-20.1,63.8c-6.8,6.8-28,22-46.6,34.6c-15.9,10.7-26.3,17.2-30.2,19.7l-21.2-21.2
	c2.5-3.9,9-14.2,19.7-30.2c12.6-18.7,27.7-39.8,34.6-46.6C130.9,24.8,154.9,17.3,178.2,21.8L178.2,21.8z M158.1,41.9
	c-6-6-15.8-6-21.8,0v0c-6,6-6,15.8,0,21.8s15.8,6,21.8,0v0C164.1,57.7,164.1,47.9,158.1,41.9z M65.9,81.7
	c-9.1,13.5-13.8,20.9-16.9,25.9L28.2,86.7c9.5-6.8,18.3-9.1,25.4-8.5C60.3,78.9,64.1,80.7,65.9,81.7z M118.3,134.1
	c1,1.9,2.8,5.6,3.4,12.3c0.7,7.1-1.7,16-8.5,25.4L92.5,151C97.4,147.9,104.8,143.2,118.3,134.1L118.3,134.1z M37.9,140.2
	C27,151.1,27,173,27,173s21.8,0,32.8-10.9L37.9,140.2z"/>
</svg>
