<?xml version="1.0" encoding="utf-8"?>
<!-- Generator: Adobe Illustrator 25.4.1, SVG Export Plug-In . SVG Version: 6.00 Build 0)  -->
<svg version="1.1" id="圖層_1" xmlns="http://www.w3.org/2000/svg" xmlns:xlink="http://www.w3.org/1999/xlink" x="0px" y="0px"
	 viewBox="0 0 200 200" style="enable-background:new 0 0 200 200;" xml:space="preserve">
<style type="text/css">
	.st0{fill:#EFEFEF;}
</style>
<path class="st0" d="M104.9,199.7c-3,0-6,0-9,0c-0.3,0-0.6-0.1-0.9-0.1c-2.9-0.2-5.7-0.4-8.6-0.7c-8.3-1-16.4-3-24.1-6.1
	c-13.2-5.2-24.5-13.3-34.3-23.4c-16.7-17.1-25.7-37.7-27.6-61.5c-0.1-1.2-0.2-2.4-0.3-3.6c0-3,0-6,0-9c0-0.3,0.1-0.6,0.1-0.9
	C0.7,88,1.5,81.6,3,75.3c3.7-15.4,10.8-29,21.3-40.9c8.5-9.6,18.2-17.6,29.6-23.5c16.9-8.6,34.8-12,53.7-10.6
	c10,0.7,19.8,2.8,29.2,6.5c12.8,4.9,23.9,12.5,33.7,22.1c17,16.8,26.5,37,29,60.7c0.2,1.5,0.3,3,0.5,4.4c0,2.8,0,5.6,0,8.4
	c0,0.3-0.1,0.7-0.1,1c-0.2,3.1-0.4,6.2-0.7,9.3c-1.3,11.5-4.6,22.5-9.8,32.8c-5.8,11.5-13.9,21.3-23.5,29.8
	c-16.3,14.5-35.5,22.3-57.2,24.1C107.4,199.5,106.2,199.6,104.9,199.7z M9.1,100c1.1,50.5,39.4,89.9,91.8,90.9
	c51.2-1.9,88.9-40.7,90.1-91.1c-1.3-52.5-41.6-89.9-90.9-90.8C49.2,10,10.1,48.9,9.1,100z"/>
<path class="st0" d="M110.3,114.4c0,3.9,0,7.6,0,11.3c0.1,0.1,0.1,0.1,0.2,0.1c4.2,0,8.4,0,12.7-0.1c2.6-0.1,4.9-1.3,6.5-3.3
	c4-4.7,9.2-7.3,15-8.9c7.4-2,14.8-4.2,22.2-6.3c2.1-0.6,2.4-0.4,2.6,1.8c0.1,0.8,0.1,1.7,0.1,2.5c-0.1,2.8-1.6,4.8-4.2,5.8
	c-4.9,1.8-8.3,5.3-11.1,9.5c-3,4.6-6.1,9.2-9.2,13.8c-1.5,2.1-3.2,4.1-5.3,5.6c-3.3,2.4-6.9,3.8-11,3.8c-18.3,0-36.7,0.1-55-0.2
	c-16.1-0.3-29.9-12.2-33.1-27.9c-0.4-2.2-0.7-4.4-0.8-6.6c-0.2-1.9,0.3-2.3,2.2-2.3c3.7,0,7.5,0,11.2,0c5.2,0,10.4,0,15.7,0
	c0.1,0,0.2,0,0.4,0c2.7,0,3.1,0.3,3.1,3c0.2,5.3,4.7,9.9,10.2,10c4.7,0.1,9.4,0,14.1,0c1.1,0,1.4-0.4,1.5-1.5c0-2.8,0-5.7,0-8.5
	c0-1.2-0.3-1.6-1.6-1.6c-3.7,0-7.5,0-11.2,0c-1,0-1.9-0.3-3.2-0.5c0.5-1,0.8-1.8,1.2-2.6c3.1-4.8,6-9.6,8.4-14.8
	c3.1-6.7,3.6-13.6,2.3-20.7c-1.8-10.4-5.6-20-10.4-29.4c-0.5-1-1-1.9-1.5-2.9c-0.2-0.4-0.2-0.9-0.3-1.5c5.5,1.4,10.7,2.8,16.1,4.2
	c0-1.9,0-3.7,0-5.5c0-0.8,0.1-1.7,0.2-2.5c0.7-3,3-4.8,6-4.7c3,0.1,5.3,2.2,5.6,5.3c0.1,1.5,0,3.1,0,4.6c0,0.5-0.1,1-0.1,1.5
	c-0.2,2.7,0.8,4.8,3.1,6.4c5.1,3.6,9.4,8,13.5,12.7c3.1,3.5,5.8,7.3,7.8,11.4c4.1,8.3,3.7,16.4-1.7,24c-2.7,3.8-5.9,7.2-8.9,10.7
	c-0.6,0.7-1.3,1.3-1.9,2.1c-1.2,1.5-2.8,2.1-4.6,2.1c-1.9,0-3.8,0-5.7,0C111,114.4,110.7,114.4,110.3,114.4z"/>
<path class="st0" d="M76.5,55.9c0.6,1.1,1.2,1.9,1.5,2.8c1.6,4.6,3.2,9.2,4.8,13.9c2.8,8.1,1.8,15.9-2.2,23.4
	c-0.6,1.1-1.3,2.2-2,3.3c-1.1,1.6-2.7,2.4-4.7,2.4c-8-0.1-15.9-0.1-23.9-0.1c-0.4,0-0.7,0-1.1,0c-1.3-0.1-1.6-0.6-0.9-1.7
	c1-1.7,2.1-3.3,3.1-5c7.7-12.1,15.4-24.2,23.2-36.3C74.8,57.5,75.6,56.8,76.5,55.9z"/>
</svg>
