<?xml version="1.0" encoding="utf-8"?>
<!-- Generator: Adobe Illustrator 25.4.1, SVG Export Plug-In . SVG Version: 6.00 Build 0)  -->
<svg version="1.1" id="圖層_1" xmlns="http://www.w3.org/2000/svg" xmlns:xlink="http://www.w3.org/1999/xlink" x="0px" y="0px"
	 viewBox="0 0 200 200" style="enable-background:new 0 0 200 200;" xml:space="preserve">
<style type="text/css">
	.st0{fill:#FFFFFF;}
</style>
<path class="st0" d="M27,51.1v117.1l46.2-19.8l54.8,27.4l45-19.3v-117l11.9-5.1c2.3-1,5,0.1,6,2.4c0.2,0.6,0.4,1.2,0.4,1.8v130
	l-63.9,27.4l-54.8-27.4l-57.5,24.7c-2.3,1-5-0.1-6-2.4c-0.2-0.6-0.4-1.2-0.4-1.8v-130C8.7,58.9,27,51.1,27,51.1z M138.7,97.7
	L100,136.4L61.3,97.7c-21.4-21.4-21.4-56.1,0-77.5s56.1-21.4,77.5,0C160.1,41.6,160.1,76.3,138.7,97.7z M100,110.6l25.8-25.8
	c14.3-14.3,14.3-37.4,0-51.6s-37.4-14.3-51.6,0s-14.3,37.4,0,51.6c0,0,0,0,0,0L100,110.6z"/>
</svg>
