<?xml version="1.0" encoding="utf-8"?>
<!-- Generator: Adobe Illustrator 25.4.1, SVG Export Plug-In . SVG Version: 6.00 Build 0)  -->
<svg version="1.1" id="圖層_1" xmlns="http://www.w3.org/2000/svg" xmlns:xlink="http://www.w3.org/1999/xlink" x="0px" y="0px"
	 viewBox="0 0 200 200" style="enable-background:new 0 0 200 200;" xml:space="preserve">
<style type="text/css">
	.st0{fill:#FFFFFF;}
</style>
<path class="st0" d="M100,33.3c50.6,0,91.7,41,91.7,91.7v41.7H175V125c0-40.6-32.2-73.8-72.8-75l-2.2,0c-40.6,0-73.8,32.2-75,72.8
	l0,2.2v41.7H8.3V125C8.3,74.4,49.4,33.3,100,33.3z M100,66.7c32.2,0,58.3,26.1,58.3,58.3v41.7h-16.7V125c0-22.3-17.6-40.7-39.9-41.6
	l-1.8,0c-22.3,0-40.7,17.6-41.6,39.9l0,1.8v41.7H41.7V125C41.7,92.8,67.8,66.7,100,66.7L100,66.7z M100,100c13.8,0,25,11.2,25,25
	v41.7h-16.7V125c0-4.2-3.2-7.8-7.4-8.3l-1-0.1c-4.2,0-7.8,3.2-8.3,7.4l-0.1,1v41.7H75V125C75,111.2,86.2,100,100,100z"/>
</svg>
