<?xml version="1.0" encoding="utf-8"?>
<!-- Generator: Adobe Illustrator 25.4.1, SVG Export Plug-In . SVG Version: 6.00 Build 0)  -->
<svg version="1.1" id="圖層_1" xmlns="http://www.w3.org/2000/svg" xmlns:xlink="http://www.w3.org/1999/xlink" x="0px" y="0px"
	 viewBox="0 0 200 200" style="enable-background:new 0 0 200 200;" xml:space="preserve">
<style type="text/css">
	.st0{fill-rule:evenodd;clip-rule:evenodd;fill:#2774A8;}
</style>
<path class="st0" d="M603.4,811.4l5.8-5.8c0.8-0.8,2.1-0.8,2.9,0l7.2,7.2l23.2-23.2c0.8-0.8,2.1-0.8,2.9,0l5.8,5.8
	c0.8,0.8,0.8,2.1,0,2.9L626.6,823l0,0l-5.8,5.8c-0.1,0.1-0.2,0.2-0.4,0.3l0,0l-0.1,0.1l0,0l0,0l0,0l-0.1,0.1l0,0l-0.1,0l0,0l0,0l0,0
	l0,0v0l0,0l0,0l0,0l-0.1,0l0,0l0,0c-0.1,0-0.1,0-0.2,0l0,0l0,0l0,0h0h0h0h0l0,0h0l0,0h0l0,0h0l0,0l0,0l0,0l0,0l0,0l0,0h0l0,0l0,0
	l0,0l0,0l0,0l0,0l0,0h0l0,0l0,0l0,0h0l0,0l0,0l0,0h0l0,0h0l0,0l0,0l0,0l0,0l0,0l0,0l0,0h0l0,0l0,0l0,0h0l0,0h0l0,0h0l0,0h0l0,0l0,0
	l0,0h0l0,0h0l0,0l0,0l0,0l0,0l0,0l0,0l-5.8-5.8l0,0l-8.6-8.6C602.6,813.5,602.6,812.2,603.4,811.4L603.4,811.4z"/>
<path class="st0" d="M7.3,108.5L29.8,86c3.1-3.1,8.2-3.1,11.2,0l28.1,28.1L159,24.2c3.1-3.1,8.1-3.1,11.2,0l22.4,22.4
	c3.1,3.1,3.1,8.2,0,11.2l-95.4,95.4l-0.1,0.1l-22.4,22.4c-0.4,0.4-0.9,0.8-1.4,1.1l0,0l-0.3,0.2l0,0l-0.2,0.1l0,0l-0.5,0.3l0,0
	l-0.4,0.1l0,0l-0.2,0.1l0,0l-0.2,0.1v0l-0.2,0.1l0,0l-0.2,0l-0.4,0.1l-0.2,0l0,0c-0.2,0.1-0.5,0.1-0.8,0.1l-0.2,0l-0.2,0l-0.2,0h0
	h-0.2h0h-0.2l-0.2,0h0l-0.2,0h0l-0.2,0h0l-0.2,0l0,0l-0.2,0l-0.2,0l0,0l-0.2,0h0l-0.2,0l0,0l-0.2,0l0,0l-0.2,0l0,0l-0.2,0h0
	l-0.2-0.1l0,0l-0.2-0.1h0l-0.2-0.1l0,0l-0.2-0.1h0l-0.2-0.1h0l-0.2-0.1l0,0l-0.2-0.1l0,0l-0.2-0.1l0,0l-0.2-0.1h0l-0.2-0.1l0,0
	l-0.2-0.1h0l-0.2-0.1h0l-0.2-0.1h0l-0.2-0.1h0l-0.2-0.1l0,0l-0.2-0.1h0l-0.1-0.1h0l-0.2-0.1l0,0l-0.1-0.1l0,0l-0.1-0.1l0,0L41,153.4
	l-0.1-0.1L7.3,119.7C4.2,116.6,4.2,111.6,7.3,108.5L7.3,108.5z"/>
</svg>
