<svg id="圖層_1" data-name="圖層 1" xmlns="http://www.w3.org/2000/svg" viewBox="0 0 190 190"><defs><style>.cls-1{fill:#4b3d82;fill-rule:evenodd;}</style></defs><path class="cls-1" d="M191.93,87.72,153.37,127l9.1,55.51A10.92,10.92,0,0,1,158.4,193a9.8,9.8,0,0,1-10.74.81L100,167.57l-47.67,26.2a9.84,9.84,0,0,1-10.74-.8,10.89,10.89,0,0,1-4.05-10.42L46.65,127,8.08,87.73A11,11,0,0,1,5.49,76.81a10.33,10.33,0,0,1,8.24-7.26L67,61.45,90.87,10.94a10,10,0,0,1,18.26,0L133,61.44l53.31,8.11a10.24,10.24,0,0,1,8.2,7.25,11,11,0,0,1-2.56,10.92Z" transform="translate(-5 -5)"/></svg>