<?xml version="1.0" encoding="utf-8"?>
<!-- Generator: Adobe Illustrator 25.4.1, SVG Export Plug-In . SVG Version: 6.00 Build 0)  -->
<svg version="1.1" id="圖層_1" xmlns="http://www.w3.org/2000/svg" xmlns:xlink="http://www.w3.org/1999/xlink" x="0px" y="0px"
	 viewBox="0 0 200 200" style="enable-background:new 0 0 200 200;" xml:space="preserve">
<style type="text/css">
	.st0{fill:#EFEFEF;}
</style>
<path class="st0" d="M95.6,0c2.9,0,5.8,0,8.6,0c0.2,0,0.5,0.1,0.7,0.1c2.7,0.2,5.4,0.4,8.1,0.7c7.7,0.9,15.2,2.7,22.5,5.4
	c13.4,4.9,24.9,12.6,35,22.6c17,16.8,26.6,37.1,29.1,60.8c0.2,1.5,0.3,3,0.5,4.4c0,2.8,0,5.6,0,8.5c0,0.3-0.1,0.6-0.1,0.9
	c-0.4,4-0.6,8.1-1.1,12.1c-1.5,11.5-5.1,22.3-10.7,32.5c-6,11.1-14.1,20.5-23.6,28.6c-15.9,13.6-34.4,21-55.2,22.9
	c-7.7,0.7-15.3,0.5-23-0.5c-8.3-1-16.4-3-24.2-6.1c-13.2-5.2-24.5-13.3-34.4-23.4c-16.7-17.2-25.7-37.8-27.6-61.5
	c-0.1-1.2-0.2-2.4-0.3-3.6c0-3,0-6,0-9c0-0.2,0.1-0.4,0.1-0.7c0.3-2.9,0.6-5.9,0.9-8.8c0.8-6.5,2.2-12.9,4.3-19.1
	c5.4-15.7,14.5-29,26.6-40.4C49,10.8,69,2.3,92,0.3C93.2,0.2,94.4,0.1,95.6,0z M9,100.1c1.1,50.4,39.2,90,91.9,91
	c51-1.8,89-40.4,90.2-91.1c-1.2-52.4-41.4-90.1-91-91C49.3,10,10,48.8,9,100.1z"/>
<path class="st0" d="M155.1,56.6c-0.1,0.4-0.2,0.8-0.4,1.1c-1.5,3.5-3.7,6.6-6.7,9.1c-0.5,0.4-0.9,1-1.4,1.4c0,0.1,0.1,0.2,0.1,0.3
	c1.1-0.1,2.3-0.1,3.3-0.4c2.3-0.6,4.5-1.4,6.7-2.1c0.3-0.1,0.6-0.2,1.2-0.4c-0.3,0.6-0.5,1.1-0.8,1.4c-2.6,3.5-5.6,6.7-9.1,9.3
	c-1.1,0.8-1.4,1.8-1.4,3.1c0,2.9-0.2,5.8-0.5,8.6c-1.2,11.1-5,21.3-11.1,30.5c-10.5,15.7-25,25.4-43.6,28.6
	c-12.2,2.1-24.1,1.4-35.7-3c-3.8-1.5-7.4-3.4-11.1-5.2c-0.3-0.1-0.5-0.4-0.8-0.5c-0.1-0.1-0.2-0.1-0.3-0.1c0-0.1,0.1-0.2,0.1-0.3
	c0.7,0,1.3,0,2,0c8.4,0.4,16.3-1.2,23.8-5c2.2-1.1,4.3-2.6,6.5-3.9c0.4-0.3,0.8-0.6,1.2-1.1c-4.8-0.8-9.3-2.2-13.2-5.1
	c-3.9-2.9-6.5-6.8-8.3-11.3c3.2-0.2,6.4,0.5,9.7-0.7c-0.7-0.3-1.3-0.7-1.8-0.9c-8.2-2.9-13.3-8.6-15.6-16.9
	c-0.3-1.1-0.4-2.4-0.6-3.6c-0.1-0.7,0-1.3,0-2.1c1,0.4,1.9,0.8,2.9,1.1c1.8,0.5,3.6,0.9,5.5,1.3c0.3,0.1,0.6-0.1,0.9-0.2
	c-0.1-0.3-0.2-0.7-0.4-1c-1.1-1.2-2.3-2.2-3.3-3.4c-4-4.8-5.7-10.4-5.3-16.7c0.2-3.1,1-6,2.3-8.7c0.2-0.3,0.3-0.6,0.5-0.9
	c0.1-0.1,0.2-0.2,0.2-0.3c2,2,3.9,4.1,5.9,6c9.6,9.1,20.9,15,34,17.4c2.6,0.5,5.3,0.7,8,0.9c1.1,0.1,1.2-0.1,1-1.2
	C97,68.4,107,57.3,116.7,55.1c8.4-1.9,16-0.4,22.4,5.6c0.9,0.8,1.8,1,3,0.8c4.2-1,8.1-2.5,11.9-4.5c0.3-0.2,0.6-0.3,0.9-0.4
	C155,56.5,155,56.6,155.1,56.6z"/>
</svg>
