<svg id="圖層_1" data-name="圖層 1" xmlns="http://www.w3.org/2000/svg" viewBox="0 0 183.33 141.67"><defs><style>.cls-1{fill:#fff;}</style></defs><path class="cls-1" d="M183.33,70.84a20.78,20.78,0,0,1,8.34,16.65v25a20.78,20.78,0,0,1-8.34,16.66V150a20.85,20.85,0,0,1-20.82,20.83H29.16A20.85,20.85,0,0,1,8.33,150V50A20.85,20.85,0,0,1,29.16,29.17H162.51A20.83,20.83,0,0,1,183.33,50Zm-16.66-4.17V50a4.18,4.18,0,0,0-4.16-4.17H29.16A4.2,4.2,0,0,0,25,50V150a4.18,4.18,0,0,0,4.16,4.17H162.51a4.2,4.2,0,0,0,4.16-4.17V133.33H129.21a20.85,20.85,0,0,1-20.88-20.81h0v-25a20.82,20.82,0,0,1,20.82-20.82h37.52ZM125,87.49v25a4.18,4.18,0,0,0,4.21,4.16h41.58a4.16,4.16,0,0,0,4.21-4.1V87.49a4.18,4.18,0,0,0-4.21-4.16H129.21a4.16,4.16,0,0,0-4.21,4.1Zm16.67,20.84A8.33,8.33,0,1,1,150,100a8.33,8.33,0,0,1-8.33,8.33Z" transform="translate(-8.33 -29.17)"/></svg>