<?xml version="1.0" encoding="utf-8"?>
<!-- Generator: Adobe Illustrator 25.0.1, SVG Export Plug-In . SVG Version: 6.00 Build 0)  -->
<svg version="1.1" id="圖層_1" xmlns="http://www.w3.org/2000/svg" xmlns:xlink="http://www.w3.org/1999/xlink" x="0px" y="0px"
	 viewBox="0 0 511 511" style="enable-background:new 0 0 511 511;" xml:space="preserve">
<style type="text/css">
	.st0{fill:#FFFFFF;}
</style>
<path class="st0" d="M1.8,465.8c0-86.8,0-173.7,0-260.5c1,0,2-0.1,3-0.1c166.4,0,332.8,0,499.3,0c1.6,0,3.2,0.2,5,0.3
	c0,2.4,0,4.4,0,6.3c0,60.4,0,120.8,0,181.2c0,21.5,0.1,42.9,0,64.4c-0.1,16.9-6.7,30.6-19.9,41.2c-7.3,5.8-15.8,8.6-24.6,10.8H46.4
	c-0.6-0.3-1.1-0.7-1.8-0.8c-13.3-2.2-23.9-8.8-32.2-19.3C6.9,482.4,4.2,474.2,1.8,465.8z"/>
<path class="st0" d="M509.1,55.2c-0.1-25.5-15.4-45.6-39-51.4c-4.4-1.1-9.1-1.5-13.7-1.5C322.5,2.2,188.6,2.4,54.7,2.1
	c-25.5,0-48,17.8-52.1,42.5c-0.1,0.4-0.5,0.8-0.8,1.2v109c4.9-0.1,9.9-0.3,14.8-0.3c161.7,0,323.3,0,485,0h7.2
	c0.1-1.7,0.3-2.9,0.3-4.2C509.1,118.6,509.2,86.9,509.1,55.2z M255.4,79.9c-0.6,13.8-12.4,24.7-26.2,24.3
	c-14.2-0.5-25.2-12.2-24.7-26.2c0.5-14.3,12.2-25.3,26.1-24.7C245.3,53.8,256,65.4,255.4,79.9z M331.7,104.2
	c-14,0-25.6-11.6-25.6-25.5c0-14,11.5-25.5,25.6-25.5c14,0,25.5,11.5,25.6,25.5C357.3,92.6,345.7,104.2,331.7,104.2z M458.6,79.5
	c-0.5,14-12.2,25.1-26.2,24.7c-14-0.5-25.1-12.2-24.7-26.2c0.5-14.1,12.3-25.5,25.9-25C448,53.5,459.1,65.2,458.6,79.5z"/>
</svg>
